<svg width="312" height="244" viewBox="0 0 312 244" fill="none" xmlns="http://www.w3.org/2000/svg">
<path d="M53.5 219V1H100V172.5H122.5V188H83.5V16.5H70.5V204.5H122.5V219H53.5Z" fill="white"/>
<path d="M138.5 1V94H154.5V16.5H258.5V1H138.5Z" fill="white"/>
<path d="M178.5 38.5V94H194V54.5H258.5V38.5H178.5Z" fill="white"/>
<path d="M138.5 243V128H155V214L178.5 196.5V128H217.5V143.5H193.5V206.5L138.5 243Z" fill="white"/>
<path d="M53 82.5V98H35.5L46 111L35.5 124.5H53V139.5H2.5L25.5 111L2 82.5H53Z" fill="white"/>
<path d="M100.5 103V118.5L262 119L246.5 129V147.5L310.5 110.5L246.5 74.5V93.5L262 103H100.5Z" fill="white"/>
<path d="M53.5 219V1H100V172.5H122.5V188H83.5V16.5H70.5V204.5H122.5V219H53.5Z" stroke="black"/>
<path d="M138.5 1V94H154.5V16.5H258.5V1H138.5Z" stroke="black"/>
<path d="M178.5 38.5V94H194V54.5H258.5V38.5H178.5Z" stroke="black"/>
<path d="M138.5 243V128H155V214L178.5 196.5V128H217.5V143.5H193.5V206.5L138.5 243Z" stroke="black"/>
<path d="M53 82.5V98H35.5L46 111L35.5 124.5H53V139.5H2.5L25.5 111L2 82.5H53Z" stroke="black"/>
<path d="M100.5 103V118.5L262 119L246.5 129V147.5L310.5 110.5L246.5 74.5V93.5L262 103H100.5Z" stroke="black"/>
</svg>
